<?xml version="1.0" standalone="no"?>
<!DOCTYPE svg PUBLIC "-//W3C//DTD SVG 20010904//EN"
 "http://www.w3.org/TR/2001/REC-SVG-20010904/DTD/svg10.dtd">
<svg version="1.0" xmlns="http://www.w3.org/2000/svg"
 width="322.000000pt" height="322.000000pt" viewBox="0 0 322.000000 322.000000"
 preserveAspectRatio="xMidYMid meet">
<metadata>
Created by potrace 1.16, written by Peter Selinger 2001-2019
</metadata>
<g transform="translate(0.000000,322.000000) scale(0.100000,-0.100000)"
fill="#000000" stroke="none">
<path d="M0 1610 l0 -1610 1610 0 1610 0 0 355 0 355 -325 0 -325 0 0 125 0
125 195 0 195 0 0 408 -1 407 -395 288 c-218 159 -401 290 -407 293 -9 3 -282
-188 -313 -219 -3 -3 65 -56 150 -119 l156 -113 0 -597 0 -598 -535 0 -535 0
0 598 1 597 145 105 c80 58 150 110 155 116 7 8 -35 44 -138 119 -81 60 -153
108 -160 109 -7 1 -192 -129 -412 -289 l-400 -290 0 -407 -1 -408 180 0 180 0
0 -125 0 -125 -310 0 -310 0 0 598 1 597 527 385 c290 211 534 384 542 384 9
0 132 -84 273 -188 142 -103 263 -186 270 -183 6 3 124 87 261 187 137 100
254 184 261 186 7 3 241 -162 521 -367 280 -204 519 -378 532 -387 l22 -14 0
656 0 656 -1610 0 -1610 0 0 -1610z m539 -1231 c57 -20 50 -97 -12 -127 l-27
-13 46 -65 c41 -57 43 -64 25 -64 -14 0 -36 20 -66 62 -25 34 -45 65 -45 69 0
4 17 16 38 26 32 16 37 22 37 53 l0 35 -62 3 -63 3 0 -126 c0 -104 -2 -125
-15 -125 -13 0 -15 22 -15 140 l0 140 64 0 c34 0 77 -5 95 -11z m281 -4 c0
-12 -15 -15 -76 -15 l-75 0 3 -47 3 -48 73 -3 c39 -2 72 -7 72 -12 0 -5 -33
-10 -72 -12 l-73 -3 0 -50 0 -50 78 -3 c110 -4 96 -22 -18 -22 l-95 0 0 140 0
140 90 0 c73 0 90 -3 90 -15z m253 -117 c32 -73 57 -136 57 -140 0 -5 -7 -8
-15 -8 -8 0 -23 20 -34 45 -19 43 -22 45 -60 45 -23 0 -41 5 -41 10 0 6 16 10
36 10 32 0 35 2 28 23 -10 33 -43 107 -47 107 -2 0 -25 -54 -52 -120 -36 -88
-53 -120 -66 -120 -15 0 -9 20 35 123 29 67 55 130 59 140 4 9 15 17 25 17 14
0 32 -30 75 -132z m627 117 c0 -12 -15 -15 -75 -15 l-75 0 0 -50 0 -50 70 0
c40 0 70 -4 70 -10 0 -6 -30 -10 -70 -10 l-70 0 0 -55 0 -55 75 0 c43 0 75 -4
75 -10 0 -6 -38 -10 -95 -10 l-95 0 0 133 c0 74 3 137 7 140 3 4 46 7 95 7 72
0 88 -3 88 -15z m228 9 c12 -4 22 -12 22 -18 0 -8 -21 -10 -68 -8 -72 4 -102
-9 -102 -46 0 -35 18 -46 86 -53 75 -8 94 -22 94 -72 0 -44 -17 -65 -60 -77
-48 -13 -140 -3 -140 15 0 10 15 12 60 8 70 -7 110 12 110 51 0 33 -17 43 -82
48 -76 6 -100 27 -96 82 3 36 8 43 38 58 35 18 95 23 138 12z m485 -126 c32
-73 57 -136 57 -140 0 -5 -7 -8 -15 -8 -8 0 -23 20 -34 45 -19 44 -21 45 -66
45 -28 0 -44 4 -40 10 3 6 22 10 41 10 32 0 35 2 28 23 -11 36 -43 107 -48
107 -2 0 -26 -54 -52 -120 -37 -94 -52 -120 -66 -120 -11 0 -17 3 -15 7 4 7
50 115 104 241 26 62 45 44 106 -100z m497 117 c0 -12 -15 -15 -75 -15 l-75 0
0 -50 0 -50 75 0 c96 0 98 -18 3 -22 l-73 -3 -3 -52 -3 -53 80 0 c47 0 81 -4
81 -10 0 -6 -38 -10 -95 -10 l-95 0 0 140 0 140 90 0 c73 0 90 -3 90 -15z"/>
<path d="M1479 1873 l-134 -99 -3 -407 -2 -407 275 0 275 0 0 408 -1 407 -131
95 c-73 52 -135 96 -138 98 -4 1 -67 -41 -141 -95z"/>
</g>
</svg>
